Simulation
nRows=27
nColumns=15
endheader
time  TH_x TH_y TH_z SC_y  SC_z  SC_x  AC_y  AC_z  AC_x  GH_y  GH_z  GH_yy  EL_x  PS_y
2.6910411985018725  0.000000  0.000000  0.000000  -23.300465996449017  5.2620549573373925  -5.069992054366127  56.06966790693714  10.17296075687028  6.874931392513828  -7.765867423171636  2.9252284382923497  37.07310391695469  15.877605691492398  120.000000
2.7312059925093632  0.000000  0.000000  0.000000  -23.335975528006777  5.32236674043213  -4.914509905302154  56.59461087158211  10.60371536295826  7.234611431629936  -11.896690592842171  0.6518577751182438  43.72953071944967  16.631121102741925  120.000000
2.771370786516854  0.000000  0.000000  0.000000  -23.497659474672915  5.402844107351367  -4.736664526410431  57.0443054005037  10.978120385253165  7.528445666664759  177.92956235568212  1.5308149623120018  -143.7696955559679  17.302293540460536  120.000000
2.8115355805243447  0.000000  0.000000  0.000000  -23.740949640669307  5.495644385274029  -4.563079746988084  57.413376001482156  11.289288457813097  7.7583563204196535  177.75885927863067  3.607307925948496  -141.47072906964195  17.863102870913647  120.000000
2.851700374531835  0.000000  0.000000  0.000000  -24.0284735285028  5.5961496529530965  -4.405526315708351  57.703025557049514  11.54261957399593  7.92989946531723  178.95883461363715  5.573548622696754  -140.73589398403615  18.29593345804305  120.000000
2.8918651685393257  0.000000  0.000000  0.000000  -24.333411213243107  5.700330904839843  -4.264772592737418  57.91876991391523  11.750288239493662  8.054433909270793  -179.47586298830643  7.41398791692871  -140.55357229538853  18.59627069259935  120.000000
2.9320299625468165  0.000000  0.000000  0.000000  -24.639075751810157  5.804176046612737  -4.136489347312977  58.067344792559574  11.925173695624956  8.146528537043318  -177.76851739177644  9.114760710843333  -140.69626927223888  18.770395256919176  120.000000
2.972194756554307  0.000000  0.000000  0.000000  -24.934306878714143  5.906943444710514  -4.0162656923487186  58.155370946189755  12.07796625814621  8.21710074623435  -176.00826437344213  10.665932634049517  -141.07051024649266  18.832598476057477  120.000000
3.012359550561798  0.000000  0.000000  0.000000  -25.212202195748933  6.011299160138322  -3.903623353034669  58.19021203114402  12.216624835515455  8.27079092527262  -174.25395095486115  12.062797891534393  -141.61168017797283  18.802953653958497  120.000000
3.0525243445692882  0.000000  0.000000  0.000000  -25.46803490570116  6.119100238411521  -3.8013876973541683  58.178930436468924  12.344458825395945  8.31121296258658  -172.55067866287715  13.305854035680019  -142.2671768067067  18.705030941507804  120.000000
3.092689138576779  0.000000  0.000000  0.000000  -25.697597853153585  6.229085991229792  -3.713772475705124  58.12817818356576  12.460890268396023  8.341957261291958  -170.93336643742614  14.398301755953558  -142.99382810430956  18.563597953085658  120.000000
3.1328539325842697  0.000000  0.000000  0.000000  -25.89743687832279  6.339282458560956  -3.645284484820145  58.04520269478441  12.563465057940778  8.365963711239239  -169.43275158325713  15.343913709942694  -143.75203743534706  18.40096368757542  120.000000
3.1730187265917604  0.000000  0.000000  0.000000  -26.06487063300203  6.447682832923415  -3.600284841795171  57.93674591861783  12.649328527971168  8.385940725244474  -168.0725620186775  16.14593667058988  -144.50886461798376  18.234869681814637  120.000000
3.2131835205992507  0.000000  0.000000  0.000000  -26.197886998791017  6.552199096753888  -3.5825449981435202  57.80898971568098  12.715969854732805  8.40430265951462  -166.87089111157042  16.80662116903284  -145.23667957869122  18.07678279166563  120.000000
3.2533483146067415  0.000000  0.000000  0.000000  -26.295028441046743  6.65098865348102  -3.595041485092392  57.66742168805799  12.761287652693214  8.423360458018212  -165.84081735553232  17.32718127647369  -145.91271931624135  17.93225748565735  120.000000
3.293513108614232  0.000000  0.000000  0.000000  -26.355398173188593  6.742575722952486  -3.6401151129630174  57.51718256678675  12.783717135437714  8.44494705407784  -164.99178805642595  17.707895127099654  -146.51801110032352  17.802280940583696  120.000000
3.333677902621723  0.000000  0.000000  0.000000  -26.378618768372707  6.825887961968165  -3.719414228615364  57.362916579313506  12.782380270415787  8.470569213151856  -164.32988892285022  17.948093860436675  -147.03723916393199  17.684942213171652  120.000000
3.3738426966292137  0.000000  0.000000  0.000000  -26.365012692625093  6.900027599218583  -3.8333724986366664  57.208188299171624  12.757210838330943  8.501701318710218  -163.85705579320808  18.04618848384284  -147.45959366667046  17.577293249924832  120.000000
3.414007490636704  0.000000  0.000000  0.000000  -26.315563790872403  6.964540910787723  -3.981234570915726  57.05579494098235  12.708951547312571  8.539572778510488  -163.5727071107736  17.999786653462163  -147.77744055545347  17.476659458276128  120.000000
3.4541722846441947  0.000000  0.000000  0.000000  -26.2319491036845  7.019463183934633  -4.161382244727967  56.907785795146395  12.639163647193609  8.58497310591063  -163.47408109130095  17.805864193062934  -147.98612554069686  17.381476036169474  120.000000
3.4943370786516854  0.000000  0.000000  0.000000  -26.11660376570552  7.0652773949995655  -4.371289124899046  56.76526204317087  12.550033034165923  8.638544368283142  -163.5557469804509  17.46099301887534  -148.08443774100076  17.29116154936729  120.000000
3.534501872659176  0.000000  0.000000  0.000000  -25.972483618088116  7.102855438588591  -4.607459196079828  56.62900274248942  12.444460421489135  8.700313502216751  -163.81286885831906  16.961152414649966  -148.07166458167015  17.205623270005717  120.000000
3.574666666666667  0.000000  0.000000  0.000000  -25.803068277597177  7.13349770338785  -4.864877362313765  56.49933614313357  12.32597078717532  8.770005262595994  -164.2418149954535  16.301710202112744  -147.94696886680623  17.124185504263615  120.000000
3.614831460674157  0.000000  0.000000  0.000000  -25.61255103396373  7.1588100093033145  -5.1376505741645895  56.375059429814264  12.198860942097722  8.84759404087664  -164.8377061764637  15.478125802764437  -147.71157206858197  17.044316825069473  120.000000
3.654996254681648  0.000000  0.000000  0.000000  -25.405262379909303  7.180392051365629  -5.420944563821225  56.25393532785648  12.067739162641598  8.932595890538444  -165.59344750410364  14.487258041854826  -147.3691649494597  16.960844946230576  120.000000
3.6951610486891386  0.000000  0.000000  0.000000  -25.184670463502343  7.198981760015467  -5.712728310423449  56.133646212594016  11.936330124188572  9.023756394121962  -166.50281542550198  13.328687865058678  -146.92254324437766  16.866232672759143  120.000000
3.7353258426966294  0.000000  0.000000  0.000000  -24.95218825893856  7.21284586133873  -6.014738653867458  56.01244013313745  11.80624259643643  9.119972047194528  -167.5661730598107  12.00561871283734  -146.36796928306717  16.75146452998783  120.000000
